<svg width="42" height="41" viewBox="0 0 42 41" fill="none" xmlns="http://www.w3.org/2000/svg"><path d="m28.117 27.17-13.784 1.263a2.99 2.99 0 0 1-3.124-2.073.69.69 0 0 0-.72-.48l-8.582.787a.687.687 0 0 0-.622.746l.296 3.218c.578 6.277 6.148 10.898 12.44 10.322l16.689-1.529c6.292-.576 10.925-6.131 10.348-12.408l-.297-3.218a.687.687 0 0 0-.748-.62l-8.583.786a.69.69 0 0 0-.62.602 2.986 2.986 0 0 1-2.693 2.606zM27.085.049 10.397 1.577C4.104 2.153-.53 7.71.049 13.986l.834 9.06c.034.378.37.655.747.62l38.107-3.49a.687.687 0 0 0 .622-.745l-.834-9.061C38.947 4.093 33.378-.528 27.085.049" fill="#85D0A9"/></svg>